<svg xmlns="http://www.w3.org/2000/svg" viewBox="0 0 512 512" style="enable-background:new 0 0 512 512" xml:space="preserve"><path style="fill:#35d8b9" d="M353.661 230.426 256 89.713l-97.661 140.713c-32.788 47.241-27.06 111.178 13.602 151.84 46.424 46.425 121.693 46.425 168.118 0 40.662-40.662 46.389-104.598 13.602-151.84z"/><path style="fill:#2bbfa3" d="M226.081 382.266c-14.473-40.662-16.511-104.599-4.841-151.84L256 89.713l-97.661 140.713c-32.788 47.241-27.06 111.178 13.602 151.84 23.213 23.213 53.635 34.819 84.059 34.819-10.828 0-21.657-11.606-29.919-34.819z"/><path style="fill:#333" d="M256 426.421c-32.848 0-65.696-12.503-90.703-37.51-43.916-43.915-50.087-112.821-14.677-163.842l97.661-140.713a9.396 9.396 0 0 1 15.44 0l97.661 140.713c35.41 51.022 29.237 119.927-14.677 163.842-25.009 25.007-57.857 37.51-90.705 37.51zm0-320.228-89.941 129.591c-30.223 43.546-24.955 102.357 12.527 139.838 42.687 42.687 112.143 42.685 154.83 0 37.481-37.481 42.751-96.292 12.527-139.838L256 106.193z"/><path style="fill:#fff" d="M317.912 369.515a9.365 9.365 0 0 1-6.644-2.752 9.395 9.395 0 0 1 0-13.288c26.758-26.758 30.519-68.745 8.943-99.832l-18.937-27.284c-2.958-4.263-1.902-10.118 2.362-13.077a9.396 9.396 0 0 1 13.077 2.362l18.937 27.284c26.764 38.564 22.099 90.644-11.094 123.836a9.37 9.37 0 0 1-6.644 2.751z"/><path style="fill:#f4550f" d="M256 512C114.841 512 0 397.159 0 256S114.841 0 256 0s256 114.841 256 256-114.841 256-256 256zm0-493.207C125.204 18.793 18.793 125.204 18.793 256S125.204 493.207 256 493.207 493.207 386.796 493.207 256 386.796 18.793 256 18.793z"/><circle style="fill:#fff" cx="289.569" cy="193.012" r="9.396"/></svg>